<?xml version="1.0" encoding="utf-8"?>
<!-- Generator: Adobe Illustrator 22.0.1, SVG Export Plug-In . SVG Version: 6.00 Build 0)  -->
<svg version="1.0" id="Layer_1" xmlns="http://www.w3.org/2000/svg" xmlns:xlink="http://www.w3.org/1999/xlink" x="0px" y="0px"
	 viewBox="0 0 5415.3 6048" style="enable-background:new 0 0 5415.3 6048;" xml:space="preserve">
<style type="text/css">
	.st0{fill:none;stroke:#00458C;stroke-width:23;stroke-miterlimit:10;}
</style>
<g>
	<circle cx="943.4" cy="2533.6" r="18"/>
</g>
<g>
	<circle cx="821.2" cy="2411.4" r="18"/>
</g>
<g>
	<circle cx="699" cy="2289.2" r="18"/>
</g>
<g>
	<circle cx="576.8" cy="2167" r="18"/>
</g>
<g>
	<circle cx="576.8" cy="1922.6" r="18"/>
</g>
<g>
	<circle cx="699" cy="1800.4" r="18"/>
</g>
<g>
	<circle cx="821.2" cy="1678.2" r="18"/>
</g>
<g>
	<circle cx="943.4" cy="1556" r="18"/>
</g>
<g>
	<circle cx="1187.8" cy="1556" r="18"/>
</g>
<g>
	<circle cx="1310" cy="1678.2" r="18"/>
</g>
<g>
	<circle cx="1432.2" cy="1800.4" r="18"/>
</g>
<g>
	<circle cx="1554.4" cy="1922.6" r="18"/>
</g>
<g>
	<circle cx="1554.4" cy="2167" r="18"/>
</g>
<g>
	<circle cx="1432.2" cy="2289.2" r="18"/>
</g>
<g>
	<circle cx="1310" cy="2411.4" r="18"/>
</g>
<g>
	<circle cx="1187.8" cy="2533.6" r="18"/>
</g>
<g>
	<circle cx="454.7" cy="2044.8" r="18"/>
</g>
<g>
	<circle cx="1065.6" cy="1433.9" r="18"/>
</g>
<g>
	<circle cx="1676.5" cy="2044.8" r="18"/>
</g>
<g>
	<circle cx="1065.6" cy="2655.7" r="18"/>
</g>
<g>
	<circle cx="4003.2" cy="3866.4" r="18"/>
</g>
<g>
	<circle cx="3830.4" cy="3866.4" r="18"/>
</g>
<g>
	<circle cx="3657.6" cy="3866.4" r="18"/>
</g>
<g>
	<circle cx="3484.8" cy="3866.4" r="18"/>
</g>
<g>
	<circle cx="3312" cy="3693.6" r="18"/>
</g>
<g>
	<circle cx="3312" cy="3520.8" r="18"/>
</g>
<g>
	<circle cx="3312" cy="3348" r="18"/>
</g>
<g>
	<circle cx="3312" cy="3175.2" r="18"/>
</g>
<g>
	<circle cx="3484.8" cy="3002.4" r="18"/>
</g>
<g>
	<circle cx="3657.6" cy="3002.4" r="18"/>
</g>
<g>
	<circle cx="3830.4" cy="3002.4" r="18"/>
</g>
<g>
	<circle cx="4003.2" cy="3002.4" r="18"/>
</g>
<g>
	<circle cx="4176" cy="3175.2" r="18"/>
</g>
<g>
	<circle cx="4176" cy="3348" r="18"/>
</g>
<g>
	<circle cx="4176" cy="3520.8" r="18"/>
</g>
<g>
	<circle cx="4176" cy="3693.6" r="18"/>
</g>
<g>
	<circle cx="3312" cy="3866.4" r="18"/>
</g>
<g>
	<circle cx="3312" cy="3002.4" r="18"/>
</g>
<g>
	<circle cx="4176" cy="3002.4" r="18"/>
</g>
<g>
	<circle cx="4176" cy="3866.4" r="18"/>
</g>
<g>
	<circle cx="5083.2" cy="1159.2" r="18"/>
</g>
<g>
	<circle cx="4910.4" cy="1159.2" r="18"/>
</g>
<g>
	<circle cx="4737.6" cy="1159.2" r="18"/>
</g>
<g>
	<circle cx="4564.8" cy="1159.2" r="18"/>
</g>
<g>
	<circle cx="4392" cy="986.4" r="18"/>
</g>
<g>
	<circle cx="4392" cy="813.6" r="18"/>
</g>
<g>
	<circle cx="4392" cy="640.8" r="18"/>
</g>
<g>
	<circle cx="4392" cy="468" r="18"/>
</g>
<g>
	<circle cx="4564.8" cy="295.2" r="18"/>
</g>
<g>
	<circle cx="4737.6" cy="295.2" r="18"/>
</g>
<g>
	<circle cx="4910.4" cy="295.2" r="18"/>
</g>
<g>
	<circle cx="5083.2" cy="295.2" r="18"/>
</g>
<g>
	<circle cx="5256" cy="468" r="18"/>
</g>
<g>
	<circle cx="5256" cy="640.8" r="18"/>
</g>
<g>
	<circle cx="5256" cy="813.6" r="18"/>
</g>
<g>
	<circle cx="5256" cy="986.4" r="18"/>
</g>
<g>
	<circle cx="4392" cy="1159.2" r="18"/>
</g>
<g>
	<circle cx="4392" cy="295.2" r="18"/>
</g>
<g>
	<circle cx="5256" cy="295.2" r="18"/>
</g>
<g>
	<circle cx="5256" cy="1159.2" r="18"/>
</g>
<line class="st0" x1="2160" y1="6048" x2="2160" y2="0"/>
<line class="st0" x1="4752" y1="6048" x2="0" y2="6048"/>
<g>
	<circle cx="3453.8" cy="946.4" r="18"/>
</g>
<g>
	<circle cx="3383.5" cy="1090.5" r="18"/>
</g>
<g>
	<circle cx="3257.7" cy="1189.4" r="18"/>
</g>
<g>
	<circle cx="3101" cy="1224" r="18"/>
</g>
<g>
	<circle cx="2944.7" cy="1187.6" r="18"/>
</g>
<g>
	<circle cx="2820.2" cy="1087.1" r="18"/>
</g>
<g>
	<circle cx="2751.7" cy="942.2" r="18"/>
</g>
<g>
	<circle cx="2752.6" cy="781.6" r="18"/>
</g>
<g>
	<circle cx="2822.9" cy="637.5" r="18"/>
</g>
<g>
	<circle cx="2948.7" cy="538.6" r="18"/>
</g>
<g>
	<circle cx="3105.4" cy="504" r="18"/>
</g>
<g>
	<circle cx="3261.7" cy="540.4" r="18"/>
</g>
<g>
	<circle cx="3386.2" cy="640.9" r="18"/>
</g>
<g>
	<circle cx="3454.7" cy="785.8" r="18"/>
</g>
</svg>
